HIERARCHY
ROOT Hips
{
	OFFSET 0.00000 0.00000 0.00000
	CHANNELS 6 Xposition Yposition Zposition Yrotation Zrotation Xrotation 
	JOINT Lumbar
	{
		OFFSET 0 0 0
		CHANNELS 3 Zrotation Xrotation Yrotation
		JOINT Neck
		{
			OFFSET 0.00 0.2701 0.00
			CHANNELS 3 Zrotation Xrotation Yrotation
			End Site
			{
				OFFSET 0.00 0.1379 0.00
			}
		}
		JOINT RightShoulder
		{
			OFFSET 0.0119 0.2289 0.1181
			CHANNELS 3 Zrotation Xrotation Yrotation
			JOINT RightElbow
			{
				OFFSET 0.00 -0.1475 0.00
				CHANNELS 2 Zrotation Yrotation
				JOINT RightWrist
				{
					OFFSET 0.00 -0.1605 0.00
					CHANNELS 2 Zrotation Xrotation
					End Site
					{
						OFFSET 0.0040 -0.1068 0.0006
					}
				}
			}
		}
		JOINT LeftShoulder
		{
			OFFSET 0.0119 0.2289 -0.1181
			CHANNELS 3 Zrotation Xrotation Yrotation
			JOINT LeftElbow
			{
				OFFSET 0.00 -0.1475 0.00
				CHANNELS 2 Zrotation Yrotation
				JOINT LeftWrist
				{
					OFFSET 0.00 -0.1605 0.00
					CHANNELS 2 Zrotation Xrotation
					End Site
					{
						OFFSET 0.0040 -0.1068 -0.0006
					}
				}
			}
		}
	}
	JOINT RightHip
	{
		OFFSET 0.0316 -0.0424 0.0458
		CHANNELS 3 Zrotation Xrotation Yrotation
		JOINT RightKnee
		{
			OFFSET 0.00 -0.2438 0.00
			CHANNELS 1 Zrotation
			JOINT RightAnkle
			{
				OFFSET 0.00 -0.2449 0.00
				CHANNELS 3 Zrotation Xrotation Yrotation
				End Site
				{
					OFFSET 0.1237 -0.0542 0.0051
				}
			}
		}
	}
	JOINT LeftHip
	{
		OFFSET 0.0316 -0.0424 -0.0458
		CHANNELS 3 Zrotation Xrotation Yrotation
		JOINT LeftKnee
		{
			OFFSET 0.00 -0.2438 0.00
			CHANNELS 1 Zrotation
			JOINT LeftAnkle
			{
				OFFSET 0.00 -0.2449 0.00
				CHANNELS 3 Zrotation Xrotation Yrotation
				End Site
				{
					OFFSET 0.1237 -0.0542 -0.0051
				}
			}
		}
	}
}
MOTION
Frames: 14
Frame Time: 0.02
-0.00032 -4e-05 -8e-05 898.69294 -43.39276 1.17345 56.50933 1.03089 1.94447 -6.13305 -2.45859 -1.20759 106.58796 -75.70633 -87.13784 11.40827 74.63333 -2.93117 -7.62386 133.9684 74.71961 87.1752 10.84388 -72.14345 0.14804 10.16451 47.18885 -3.19144 -18.08706 -19.22727 -6.59612 -2.342 -3.40052 51.32321 1.17215 7.40764 -24.5497 -7.68628 3.53332 3.99781
-0.00036 -4e-05 -0.00023 898.74192 -43.41706 1.15084 56.50313 0.98942 1.86786 -6.08317 -2.40491 -1.20874 106.44272 -75.72614 -87.13871 11.39423 74.6371 -2.95591 -7.66636 134.32693 74.60757 87.16374 10.84032 -72.17334 0.28995 10.16022 47.23648 -2.99347 -17.11686 -19.22576 -6.66506 -2.45691 -3.45512 51.33857 1.25599 7.63784 -24.54464 -7.66543 3.50401 3.98318
-0.00039 -4e-05 -0.00038 898.79076 -43.44133 1.12829 56.49695 0.94807 1.79147 -6.03341 -2.35137 -1.20989 106.29811 -75.74596 -87.13959 11.3803 74.64088 -2.98051 -7.70875 134.68425 74.49585 87.15234 10.8367 -72.20304 0.43134 10.15594 47.28398 -2.79626 -16.15066 -19.22427 -6.73373 -2.57137 -3.5095 51.3539 1.3397 7.86791 -24.53959 -7.6446 3.47473 3.96857
-0.00042 -4e-05 -0.00053 898.83959 -43.46557 1.10575 56.49077 0.90673 1.71509 -5.98368 -2.29786 -1.21104 106.15337 -75.76573 -87.14046 11.36632 74.64464 -3.00515 -7.75112 135.04169 74.38415 87.14093 10.83314 -72.23283 0.57281 10.15166 47.33146 -2.59892 -15.18367 -19.22275 -6.80245 -2.68591 -3.56392 51.36921 1.42329 8.09747 -24.53454 -7.62381 3.44549 3.95398
-0.00045 -4e-05 -0.00069 898.88856 -43.48981 1.08314 56.48454 0.86527 1.63851 -5.93383 -2.24423 -1.21219 106.0079 -75.78545 -87.14133 11.3522 74.64839 -3.02995 -7.7936 135.40031 74.27214 87.12946 10.82963 -72.26286 0.71481 10.14737 47.37908 -2.40075 -14.21216 -19.22126 -6.87148 -2.80096 -3.61858 51.38454 1.50697 8.32702 -24.52949 -7.60299 3.41624 3.93939
-0.00048 -4e-05 -0.00083 898.93711 -43.51412 1.06072 56.47847 0.82414 1.56254 -5.88428 -2.19088 -1.21333 105.86505 -75.80546 -87.1422 11.33865 74.65226 -3.05414 -7.83581 135.75481 74.16104 87.11819 10.82579 -72.29185 0.8549 10.14311 47.42636 -2.20557 -13.25708 -19.21978 -6.9394 -2.91418 -3.67237 51.39987 1.59075 8.55819 -24.52444 -7.58215 3.38689 3.92473
-0.00052 -4e-05 -0.00099 898.98647 -43.53831 1.03795 56.47213 0.78239 1.48539 -5.8342 -2.13702 -1.21449 105.71723 -75.82491 -87.14309 11.32399 74.65584 -3.07952 -7.8785 136.11739 74.04824 87.10654 10.82266 -72.32288 0.99871 10.1388 47.4742 -2.00463 -12.27044 -19.21819 -7.00944 -3.03091 -3.72782 51.41519 1.67421 8.78567 -24.51938 -7.56138 3.35779 3.91022
-0.00055 -4e-05 -0.00114 899.03502 -43.56256 1.0155 56.46595 0.74123 1.40937 -5.78457 -2.08363 -1.21564 105.57375 -75.84481 -87.14393 11.31032 74.65975 -3.10383 -7.92077 136.47221 73.93699 87.09521 10.81879 -72.3521 1.13904 10.13453 47.52165 -1.80892 -11.31209 -19.21686 -7.0776 -3.14448 -3.78179 51.43051 1.75802 9.01687 -24.51437 -7.54055 3.32843 3.89557
-0.00058 -4e-05 -0.00128 899.08288 -43.58707 0.99345 56.46031 0.7007 1.33454 -5.73559 -2.03078 -1.21676 105.43649 -75.86552 -87.14485 11.29802 74.66384 -3.1267 -7.96243 136.8189 73.82764 87.08441 10.81435 -72.37882 1.27537 10.13033 47.56813 -1.61987 -10.39134 -19.21519 -7.14318 -3.25392 -3.83378 51.44586 1.84209 9.25158 -24.50926 -7.51961 3.29886 3.88078
-0.00062 -5e-05 -0.00144 899.13559 -43.61065 0.96912 56.4526 0.65628 1.25227 -5.68317 -1.97471 -1.21799 105.26621 -75.88236 -87.14571 11.27832 74.66621 -3.15748 -8.00731 137.21644 73.70738 87.07098 10.81417 -72.41904 1.4355 10.12579 47.61871 -1.39332 -9.26329 -19.2135 -7.22276 -3.38631 -3.89668 51.46111 1.92415 9.463 -24.50426 -7.49919 3.27079 3.86688
-0.00064 -5e-05 -0.00158 899.17751 -43.63581 0.94958 56.44861 0.62024 1.18608 -5.63785 -1.92554 -1.21901 105.16383 -75.90684 -87.14645 11.27391 74.67265 -3.1718 -8.04562 137.50409 73.61016 87.06281 10.80442 -72.43138 1.5449 10.12195 47.6616 -1.24534 -8.5668 -19.21315 -7.27332 -3.4708 -3.93684 51.47654 2.01074 9.72542 -24.49929 -7.47776 3.23939 3.85104
-0.00065 -4e-05 -0.00164 899.19383 -43.66804 0.94345 56.45945 0.60589 1.1617 -5.61319 -1.89439 -1.21933 105.26226 -75.9559 -87.14693 11.31415 74.68897 -3.13821 -8.06422 137.5053 73.57472 87.06949 10.77203 -72.36408 1.51748 10.11862 47.67571 -1.32021 -9.1159 -19.20691 -7.23903 -3.41799 -3.9116 51.49286 2.10737 10.11241 -24.49252 -7.45301 3.20015 3.83034
-0.00065 -4e-05 -0.00167 899.19846 -43.70099 0.94206 56.4727 0.60019 1.15411 -5.59537 -1.87029 -1.21952 105.42484 -76.01128 -87.14594 11.36903 74.71108 -3.08837 -8.07679 137.39104 73.5615 87.07981 10.72879 -72.27116 1.43832 10.11516 47.68375 -1.47298 -10.08816 -19.2046 -7.17651 -3.31803 -3.86401 51.50932 2.20873 10.55221 -24.48634 -7.42745 3.15746 3.80767
-0.00064 -3e-05 -0.00171 899.2059 -43.73225 0.93839 56.48242 0.59143 1.14007 -5.57368 -1.8436 -1.21974 105.55036 -76.06226 -87.14732 11.41573 74.72954 -3.04807 -8.09292 137.3227 73.54058 87.09016 10.68888 -72.18969 1.38175 10.11412 47.69929 -1.58494 -10.82518 -19.20573 -7.13033 -3.24362 -3.8287 51.52544 2.30982 10.97955 -24.48085 -7.40247 3.11527 3.78549
